<?xml version="1.0" encoding="UTF-8" standalone="no"?>
<!-- Generator: Adobe Illustrator 27.4.1, SVG Export Plug-In . SVG Version: 6.00 Build 0)  -->

<svg
   version="1.1"
   id="Layer_1"
   x="0px"
   y="0px"
   viewBox="0 0 872.36 874.51"
   xml:space="preserve"
   sodipodi:docname="favicon.svg"
   width="872.35999"
   height="874.51001"
   inkscape:export-filename="favicon3.svg"
   inkscape:export-xdpi="96"
   inkscape:export-ydpi="96"
   xmlns:inkscape="http://www.inkscape.org/namespaces/inkscape"
   xmlns:sodipodi="http://sodipodi.sourceforge.net/DTD/sodipodi-0.dtd"
   xmlns="http://www.w3.org/2000/svg"
   xmlns:svg="http://www.w3.org/2000/svg"><defs
   id="defs62" /><sodipodi:namedview
   id="namedview60"
   pagecolor="#ffffff"
   bordercolor="#000000"
   borderopacity="0.25"
   inkscape:showpageshadow="2"
   inkscape:pageopacity="0.0"
   inkscape:pagecheckerboard="0"
   inkscape:deskcolor="#d1d1d1"
   showgrid="false" />
<style
   type="text/css"
   id="style49">
	.st0{fill:#070A28;}
	.st1{fill:#FFFFFF;}
</style>
<path
   class="st0"
   d="m 435.5361,871.01992 v 0 c -238.39,0 -431.65,-193.25 -431.65,-431.65 v 0 c 0,-238.39 193.25,-431.650005 431.65,-431.650005 v 0 c 238.39,0 431.65,193.250005 431.65,431.650005 v 0 c -0.01,238.39 -193.26,431.65 -431.65,431.65 z"
   id="path51"
   inkscape:export-filename="favicon2.svg"
   inkscape:export-xdpi="96"
   inkscape:export-ydpi="96" />
<path
   class="st1"
   d="m 442.99821,39.189331 c -67.26629,0 -101.48856,43.437313 -101.48856,129.186439 v 553.07836 c 0,42.24147 8.23023,73.66756 25.93929,95.38622 17.70906,22.98485 42.52285,33.80021 75.54927,33.80021 31.91851,0 56.64436,-10.83294 74.37101,-33.80021 17.7794,-21.71866 26.00963,-53.14475 26.00963,-95.38622 V 168.37577 c 0,-42.31181 -8.23023,-73.667569 -26.00963,-96.564488 C 499.64257,50.004693 474.89914,39.189331 442.99821,39.189331 Z M 467.812,760.16081 c 0,5.29337 -4.29098,9.58435 -9.58435,9.58435 h -31.65473 c -5.29337,0 -9.58434,-4.29098 -9.58434,-9.58435 V 129.66908 c 0,-5.29337 4.29097,-9.58435 9.58434,-9.58435 h 31.65473 c 5.29337,0 9.58435,4.29098 9.58435,9.58435 z"
   id="path53"
   style="stroke-width:1.7586" />



</svg>
