<?xml version="1.0" encoding="utf-8"?>
<!-- Generator: Adobe Illustrator 27.4.1, SVG Export Plug-In . SVG Version: 6.00 Build 0)  -->
<svg version="1.1" id="Layer_1" xmlns="http://www.w3.org/2000/svg" xmlns:xlink="http://www.w3.org/1999/xlink" x="0px" y="0px"
	 viewBox="0 0 1155.36 949.51" style="enable-background:new 0 0 1155.36 949.51;" xml:space="preserve">
<style type="text/css">
	.st0{fill:#070A28;}
</style>
<path class="st0" d="M120.18,145.77c-54.4,0-82.09,35.13-82.09,104.48v447.33c0,34.17,6.65,59.58,20.98,77.14
	c14.33,18.59,34.39,27.34,61.11,27.34c25.81,0,45.82-8.75,60.14-27.34c14.38-17.57,21.03-42.98,21.03-77.14V250.25
	c0-34.22-6.65-59.58-21.03-78.11C166,154.52,145.99,145.77,120.18,145.77z M140.25,728.89c0,4.28-3.47,7.75-7.75,7.75h-25.6
	c-4.28,0-7.75-3.47-7.75-7.75V218.95c0-4.28,3.47-7.75,7.75-7.75h25.6c4.28,0,7.75,3.47,7.75,7.75V728.89z"/>
<path class="st0" d="M487.45,621.58c-0.65-4.23-4.6-7.13-8.83-6.48l-61.89,9.48c-4.23,0.65-8.18-2.26-8.83-6.49l-26.06-170.17
	c-0.65-4.23,2.26-8.18,6.48-8.83l65.59-10.05c4.05-0.62,6.84-4.41,6.22-8.46l-7.01-45.88c-0.65-4.23-4.6-7.14-8.83-6.49
	l-125.96,19.29c-4.23,0.65-7.13,4.6-6.48,8.83l80.89,528.16c0.65,4.23,4.6,7.13,8.83,6.48l45.36-6.95c4.23-0.65,7.13-4.6,6.48-8.83
	L419.56,694.2c-0.65-4.23,2.26-8.18,6.48-8.83l61.9-9.48c4.23-0.65,7.13-4.6,6.48-8.83L487.45,621.58z"/>
<path class="st0" d="M369.76,321.43l0-43.35c0-4.28-3.47-7.75-7.75-7.75H299.4c-4.28,0-7.75-3.47-7.75-7.75V90.43
	c0-4.28,3.47-7.75,7.75-7.75h63.12c5.89,0,10.66-4.77,10.66-10.66l0.01-43.18c0-4.28-3.47-7.75-7.74-7.75H238.02
	c-4.28,0-7.75,3.47-7.75,7.75v887.92c0,4.28,3.47,7.75,7.75,7.75h45.89c4.28,0,7.75-3.47,7.75-7.75V339.57
	c0-4.28,3.47-7.75,7.75-7.75h59.97C365.11,331.82,369.76,327.17,369.76,321.43z"/>
<path class="st0" d="M685.13,21.1c-53.15,0-80.21,25.24-80.21,75.04v583.12c0,4.28,3.47,7.75,7.75,7.75h53.13V400.27
	c0-4.78,3.47-8.87,8.19-9.61l20.29-3.35c5.97-0.97,11.37,3.64,11.37,9.66v282.28c0,4.28,3.47,7.75,7.75,7.75h44.18
	c4.28,0,7.75-3.47,7.75-7.75V96.14c0-24.56-6.54-42.81-20.52-56.11C730.84,27.41,710.31,21.1,685.13,21.1z M705.65,314.89
	c0,4.77-3.47,8.87-8.19,9.66l-21.2,3.41c-6.08,1.02-11.65-3.7-11.65-9.89V97.47c0-4.28,3.47-7.75,7.75-7.75h25.54
	c4.28,0,7.75,3.47,7.75,7.75V314.89z"/>
<path class="st0" d="M934.86,367.7c-11.08-8.98-26.26-13.64-45.59-13.64h-53.21H805.5c-4.28,0-7.75,3.47-7.75,7.75v558.37
	c0,4.28,3.47,7.75,7.75,7.75h44.87c4.28,0,7.75-3.47,7.75-7.75V422.62h41.56v497.56c0,4.28,3.47,7.75,7.75,7.75h44.87
	c4.28,0,7.75-3.47,7.75-7.75V446.72c0-32-5.68-55.54-17-70.72C940.6,372.93,937.87,370.15,934.86,367.7z"/>
<path class="st0" d="M1060.51,81.36h49.43c4.28,0,7.75-3.47,7.75-7.75V26.24c0-4.28-3.47-7.75-7.75-7.75h-109.68
	c-4.28,0-7.75,3.47-7.75,7.75v765.47c0,4.28,3.47,7.75,7.75,7.75h109.68c4.28,0,7.75-3.47,7.75-7.75v-45.9
	c0-4.28-3.47-7.75-7.75-7.75h-49.43c-4.28,0-7.75-3.47-7.75-7.75l-0.05-398.33c0-3.8,2.75-7.03,6.5-7.64l51.71-8.41
	c3.9-0.64,6.77-4.01,6.77-7.96v-46.39c0-4.78-4.28-8.41-8.99-7.65l-46.94,7.64c-4.71,0.77-8.99-2.87-8.99-7.65V89.11
	C1052.76,84.83,1056.23,81.36,1060.51,81.36z"/>
<path class="st0" d="M757.57,740.58h-92.98v0.24H576c-4.28,0-7.75-3.47-7.75-7.75V28.84c0-4.28-3.47-7.75-7.75-7.75h-45.9
	c-4.28,0-7.75,3.47-7.75,7.75v765.49c0,4.28,3.47,7.75,7.75,7.75h149.98h6.43h86.55c4.28,0,7.75-3.47,7.75-7.75v-46
	C765.32,744.05,761.85,740.58,757.57,740.58z"/>
</svg>
